<?xml version="1.0" encoding="utf-8"?>
<!-- Svg Vector Icons : http://www.onlinewebfonts.com/icon -->
<!DOCTYPE svg PUBLIC "-//W3C//DTD SVG 1.1//EN" "http://www.w3.org/Graphics/SVG/1.1/DTD/svg11.dtd">
<svg version="1.1" xmlns="http://www.w3.org/2000/svg" xmlns:xlink="http://www.w3.org/1999/xlink" x="0px" y="0px" viewBox="0 0 1000 1000" enable-background="new 0 0 1000 1000" xml:space="preserve">
<metadata> Svg Vector Icons : http://www.onlinewebfonts.com/icon </metadata>
<g><g transform="translate(0.000000,511.000000) scale(0.100000,-0.100000)"><path d="M3413.2,4973.7c-78.3-37.2-1391.9-1358.6-1419.3-1427.2c-29.4-80.3-23.5-238.8,11.7-323c35.2-88.1,1795.2-1861.8,1916.6-1932.2c107.7-62.7,207.5-78.3,319.1-48.9c84.2,23.5,152.7,86.1,761.5,691.1c370,368.1,687.1,698.9,704.8,736.1c52.9,107.7,45,268.2-17.6,373.9c-76.3,129.2-1848,1889.2-1938.1,1928.3C3661.8,5007,3491.5,5008.9,3413.2,4973.7z M4466.4,3712.9l875.1-875.1l-603-603l-601-601l-881,881l-881,881l597.1,597.1c328.9,328.9,601,597.1,606.9,597.1C3585.5,4590,3982.9,4196.5,4466.4,3712.9z"/><path d="M6300.8,2898.5c-58.7-13.7-139-39.2-176.2-58.7C6016.9,2785,3749.9,506.2,3695.1,400.5c-33.3-64.6-47-133.1-52.9-256.5c-11.7-215.3,25.4-332.8,142.9-464l86.1-95.9L3716.6-361c-536.4,189.9-1131.5,56.8-1521.1-338.7L2072.2-823l1000.4-998.4l998.4-998.4l152.7,158.6c166.4,174.2,264.3,342.6,338.7,575.6c39.2,125.3,45,186,43.1,420.9c0,276-13.7,340.6-115.5,606.9c-9.8,27.4,7.8,15.6,60.7-33.3c127.3-121.4,242.8-162.5,448.3-160.5c142.9,0,195.8,9.8,274.1,47c78.3,35.2,332.8,279.9,1266.6,1211.8c969.1,967.1,1176.6,1184.4,1211.8,1264.7c60.7,137,72.4,344.6,27.4,491.4c-33.3,109.6-60.7,139-497.3,581.4c-254.5,256.5-493.3,483.6-530.5,503.1c-62.6,31.3-268.2,80.3-321.1,76.3C6418.3,2924,6359.5,2912.2,6300.8,2898.5z M6948.8,2070.4c246.7-242.7,450.3-464,458.1-489.4c7.8-31.3-2-70.5-27.4-109.6c-60.7-97.9-2276.8-2300.3-2335.5-2321.8c-33.3-13.7-72.4-13.7-97.9-3.9c-25.4,9.8-240.8,215.4-479.6,456.2c-370,372-436.6,446.3-436.6,495.3c0,50.9,154.7,213.4,1180.5,1237.3c1023.9,1025.8,1186.4,1180.5,1237.3,1180.5C6496.6,2514.8,6570.9,2448.3,6948.8,2070.4z M3485.6-715.4c485.5-148.8,812.4-665.6,714.6-1127.6c-29.4-135.1-117.5-340.6-146.8-340.6c-7.8,0-317.2,301.5-685.2,671.5c-518.8,518.8-665.6,677.4-646,693C2886.6-688,3240.9-639,3485.6-715.4z"/><path d="M7563.5,813.6C7453.9,762.7,6195.1-502,6154-601.8c-37.2-94-37.2-231,1.9-325c45-109.6,1826.5-1887.2,1953.8-1951.8c119.4-58.7,225.1-62.6,344.6-7.8c125.3,56.8,1352.8,1282.3,1407.6,1407.6c50.9,111.6,50.9,221.2,0,332.8c-50.9,115.5-1826.5,1898.9-1947.9,1957.7C7814.1,860.6,7667.3,860.6,7563.5,813.6z M8616.7-437.4l875.1-875.1l-603-603l-601-601l-881,881l-881,881L7123-157.4c328.9,328.9,601,597.1,606.9,597.1S8133.2,46.2,8616.7-437.4z"/><path d="M1269.5-917c-27.4-13.7-64.6-56.8-84.2-95.9c-35.2-70.5-35.2-76.4,13.7-278c264.3-1092.4,1086.5-1969.4,2196.5-2339.4c393.5-133.1,522.7-127.2,585.3,23.5c64.6,154.7-15.7,242.8-268.2,303.4c-244.7,58.7-563.8,191.9-790.9,327c-667.6,399.4-1143.3,1031.7-1327.3,1775.6c-41.1,164.4-62.6,211.4-109.6,256.4C1420.3-887.6,1347.8-877.8,1269.5-917z"/><path d="M690.1-2289.3c-62.6-62.6-70.5-80.3-60.7-144.8c21.5-160.5,242.8-583.4,440.5-845.7c291.7-381.7,718.5-714.6,1174.6-912.3c191.9-84.2,289.7-88.1,362.2-11.8c39.2,41.1,52.9,74.4,52.9,135.1c0,113.6-52.9,164.5-258.4,250.6c-397.4,168.4-855.5,544.2-1092.4,898.6c-97.9,146.8-293.7,526.6-293.7,571.6c0,43.1-95.9,109.6-174.2,119.4C768.4-2218.9,754.7-2224.7,690.1-2289.3z"/><path d="M218.3-3328.9c-78.3-33.3-131.2-131.2-115.5-215.4c13.7-74.4,207.5-362.2,383.7-567.7c201.6-236.9,563.8-522.7,798.7-630.4c88.1-41.1,111.6-45,168.4-25.4c88.1,29.4,131.2,80.3,142.9,174.2c9.8,70.5,3.9,86.1-56.8,142.9c-37.2,35.2-146.8,113.5-242.8,172.3c-236.9,146.8-561.9,471.8-738,736.1C459.1-3389.5,414-3336.7,367-3321C290.7-3295.6,294.6-3295.6,218.3-3328.9z"/></g></g>
</svg>